####
#
#	OBJ File Generated by LightWave3D
#	LightWave3D OBJ Export v2.3
#
####
o axis.obj
mtllib axis.mtl
g default
v -0.934942 -0.1 -6.54513e-012
v -0.934942 -0.0866025 0.05
v -0.934942 -0.0866025 -0.05
v -0.934942 -0.05 0.0866025
v -0.934942 -0.05 -0.0866025
v -0.934942 0 0.1
v -0.934942 0 -0.1
v -0.934942 0.05 0.0866025
v -0.934942 0.05 -0.0866025
v -0.934942 0.0866025 0.05
v -0.934942 0.0866025 -0.05
v -0.934942 0.1 -6.54513e-012
v 0.934942 -0.1 6.54513e-012
v 0.934942 -0.0866025 0.05
v 0.934942 -0.0866025 -0.05
v 0.934942 -0.05 0.0866025
v 0.934942 -0.05 -0.0866025
v 0.934942 0 0.1
v 0.934942 0 -0.1
v 0.934942 0.05 0.0866025
v 0.934942 0.05 -0.0866025
v 0.934942 0.0866025 0.05
v 0.934942 0.0866025 -0.05
v 0.934942 0.1 6.54513e-012
vn -0.95152 0.251639 -0.176881
vn -0.719255 -0.694747 -0
vn -0.717874 -0.400342 -0.569547
vn -0.5665 -0.0733106 0.820795
vn -0.566499 -0.747484 0.346909
vn -0.566499 -0.747484 -0.346909
vn -0.566499 -0.473886 0.674174
vn -0.566499 0.346909 0.747484
vn -0.566499 0.346909 -0.747484
vn -0.566499 0.674174 0.473886
vn -0.325058 -0.0841313 -0.941945
vn -0.250563 0.9681 -0
vn 0.325058 0.0841313 0.941945
vn 0.459701 -0.888074 -0
vn 0.459701 0.888074 -0
vn 0.566499 -0.674174 0.473886
vn 0.566499 -0.674174 -0.473886
vn 0.566499 -0.346909 -0.747484
vn 0.566499 0.473886 0.674174
vn 0.566499 0.473886 -0.674174
vn 0.566499 0.747484 -0.346909
vn 0.5665 0.0733106 -0.820795
vn 0.717874 -0.293071 0.63148
vn 0.95152 0.279002 0.129486
usemtl Default_Smoothing
s 1
f 10//10 12//12 11//1
f 10//10 11//1 8//8
f 8//8 11//1 6//4
f 6//4 11//1 4//7
f 4//7 11//1 2//5
f 2//5 11//1 1//2
f 11//1 3//6 1//2
f 11//1 5//3 3//6
f 9//9 7//11 5//3
f 11//1 9//9 5//3
f 22//24 12//12 10//10
f 24//15 12//12 22//24
f 20//19 10//10 8//8
f 22//24 10//10 20//19
f 18//13 8//8 6//4
f 20//19 8//8 18//13
f 16//23 6//4 4//7
f 18//13 6//4 16//23
f 14//16 4//7 2//5
f 16//23 4//7 14//16
f 13//14 2//5 1//2
f 14//16 2//5 13//14
f 3//6 13//14 1//2
f 3//6 15//17 13//14
f 5//3 15//17 3//6
f 5//3 17//18 15//17
f 7//11 17//18 5//3
f 7//11 19//22 17//18
f 9//9 19//22 7//11
f 9//9 21//20 19//22
f 11//1 21//20 9//9
f 11//1 23//21 21//20
f 12//12 23//21 11//1
f 12//12 24//15 23//21
f 23//21 24//15 22//24
f 23//21 22//24 21//20
f 21//20 22//24 19//22
f 19//22 22//24 17//18
f 17//18 22//24 15//17
f 15//17 22//24 13//14
f 22//24 14//16 13//14
f 22//24 16//23 14//16
f 20//19 18//13 16//23
f 22//24 20//19 16//23
