####
#
#	OBJ File Generated by LightWave3D
#	LightWave3D OBJ Export v2.3
#
####
o trailer.obj
mtllib trailer.mtl
g default
v -1.1804 -0.000872011 -9.61779
v -1.1804 -0.000872011 -10.7938
v -1.1804 -1.00255e-008 -8.43482
v -1.1804 -1.00255e-008 -9.57885
v -1.1804 -7.79958e-009 -4.10829
v -1.1804 -7.79958e-009 -10.9083
v -1.1804 0.0412259 -9.61779
v -1.1804 0.0412259 -10.7938
v -1.1804 0.0413183 -8.43482
v -1.1804 0.0413183 -9.57885
v -1.1804 0.123112 -8.44646
v -1.1804 0.123112 -9.56718
v -1.1804 0.124563 -9.62978
v -1.1804 0.124563 -10.7818
v -1.1804 0.202401 -8.46952
v -1.1804 0.202401 -9.54408
v -1.1804 0.205347 -9.65342
v -1.1804 0.205347 -10.7581
v -1.1804 0.27757 -8.5035
v -1.1804 0.27757 -9.5101
v -1.1804 0.281935 -9.68835
v -1.1804 0.281935 -10.7231
v -1.1804 0.347087 -8.54775
v -1.1804 0.347087 -9.46594
v -1.1804 0.352763 -9.73385
v -1.1804 0.352763 -10.6777
v -1.1804 0.409539 -8.60132
v -1.1804 0.409539 -9.41229
v -1.1804 0.416395 -9.78889
v -1.1804 0.416395 -10.6225
v -1.1804 0.463654 -8.66316
v -1.1804 0.463654 -9.35049
v -1.1804 0.47153 -9.85251
v -1.1804 0.47153 -10.5591
v -1.1804 0.50833 -8.73198
v -1.1804 0.50833 -9.28165
v -1.1804 0.517049 -9.92319
v -1.1804 0.517049 -10.4882
v -1.1804 0.542659 -8.80641
v -1.1804 0.542659 -9.20722
v -1.1804 0.552026 -9.99977
v -1.1804 0.552026 -10.4118
v -1.1804 0.565939 -8.88492
v -1.1804 0.565939 -9.12872
v -1.1804 0.575746 -10.0804
v -1.1804 0.575746 -10.331
v -1.1804 0.5777 -8.96591
v -1.1804 0.5777 -9.04773
v -1.1804 0.587728 -10.1637
v -1.1804 0.587728 -10.2478
v -1.1804 0.8 -4.10829
v -1.1804 0.8 -10.9083
v -1.10575 0.043197 -10.9083
v -1.10575 0.043197 -10.9691
v -1.10575 0.458283 -10.9083
v -1.10575 0.458283 -10.9691
v -0.605748 -0.115116 -8.69898
v -0.605748 -0.115116 -10.5688
v -0.605748 0.331395 -3.13154
v -0.605748 0.331395 -8.3641
v -0.605748 0.373256 -10.5688
v -0.605748 0.373256 -10.9283
v -0.605748 0.498837 -2.89433
v -0.605748 0.536143 0.691713
v -0.605748 0.536143 -2.79873
v -0.605748 0.7 0.691713
v -0.605748 0.7 -10.9083
v -0.605748 0.7 -10.9283
v 0.594252 -0.115116 -8.69898
v 0.594252 -0.115116 -10.5688
v 0.594252 0.331395 -3.13154
v 0.594252 0.331395 -8.3641
v 0.594252 0.373256 -10.5688
v 0.594252 0.373256 -10.9283
v 0.594252 0.498837 -2.89433
v 0.594252 0.536143 0.691713
v 0.594252 0.536143 -2.79873
v 0.594252 0.7 0.691713
v 0.594252 0.7 -10.9083
v 0.594252 0.7 -10.9283
v 1.09425 0.043197 -10.9083
v 1.09425 0.043197 -10.9691
v 1.09425 0.458283 -10.9083
v 1.09425 0.458283 -10.9691
v 1.1696 -0.000872011 -9.61779
v 1.1696 -0.000872011 -10.7938
v 1.1696 -1.00255e-008 -8.43482
v 1.1696 -1.00255e-008 -9.57885
v 1.1696 -7.79958e-009 -4.10829
v 1.1696 -7.79958e-009 -10.9083
v 1.1696 0.0412259 -9.61779
v 1.1696 0.0412259 -10.7938
v 1.1696 0.0413183 -8.43482
v 1.1696 0.0413183 -9.57885
v 1.1696 0.123112 -8.44646
v 1.1696 0.123112 -9.56718
v 1.1696 0.124563 -9.62978
v 1.1696 0.124563 -10.7818
v 1.1696 0.202401 -8.46952
v 1.1696 0.202401 -9.54408
v 1.1696 0.205347 -9.65342
v 1.1696 0.205347 -10.7581
v 1.1696 0.27757 -8.5035
v 1.1696 0.27757 -9.5101
v 1.1696 0.281935 -9.68835
v 1.1696 0.281935 -10.7231
v 1.1696 0.347087 -8.54775
v 1.1696 0.347087 -9.46594
v 1.1696 0.352763 -9.73385
v 1.1696 0.352763 -10.6777
v 1.1696 0.409539 -8.60132
v 1.1696 0.409539 -9.41229
v 1.1696 0.416395 -9.78889
v 1.1696 0.416395 -10.6225
v 1.1696 0.463654 -8.66316
v 1.1696 0.463654 -9.35049
v 1.1696 0.47153 -9.85251
v 1.1696 0.47153 -10.5591
v 1.1696 0.50833 -8.73198
v 1.1696 0.50833 -9.28165
v 1.1696 0.517049 -9.92319
v 1.1696 0.517049 -10.4882
v 1.1696 0.542659 -8.80641
v 1.1696 0.542659 -9.20722
v 1.1696 0.552026 -9.99977
v 1.1696 0.552026 -10.4118
v 1.1696 0.565939 -8.88492
v 1.1696 0.565939 -9.12872
v 1.1696 0.575746 -10.0804
v 1.1696 0.575746 -10.331
v 1.1696 0.5777 -8.96591
v 1.1696 0.5777 -9.04773
v 1.1696 0.587728 -10.1637
v 1.1696 0.587728 -10.2478
v 1.1696 0.8 -4.10829
v 1.1696 0.8 -10.9083
vn -0.985528 0.0758098 0.15162
vn -0.985528 0.15162 -0.0758098
vn -0.948683 0 -0.316228
vn -0.872872 -0.436436 -0.218218
vn -0.801881 -0.51431 0.304092
vn -0.800665 -0.596344 0.0575282
vn -0.740798 -0.54325 0.395093
vn -0.712544 -0.680044 0.172688
vn -0.707922 -0.685995 0.168096
vn -0.70792 -0.406826 0.577358
vn -0.707919 -0.654797 0.264747
vn -0.707918 -0.627672 -0.323851
vn -0.707917 -0.511024 -0.487553
vn -0.707916 -0.55299 0.439382
vn -0.707916 -0.61016 0.355752
vn -0.707913 -0.353006 -0.611756
vn -0.707912 -0.69351 -0.133811
vn -0.707911 -0.262095 -0.655872
vn -0.707909 -0.0672105 -0.703099
vn -0.707906 -0.0335475 0.705509
vn -0.707903 -0.667393 -0.231213
vn -0.707899 -0.436288 -0.555456
vn -0.707898 -0.575082 -0.410075
vn -0.707897 -0.132675 0.693742
vn -0.707897 -0.166181 -0.686488
vn -0.707897 -0.485055 0.513424
vn -0.707896 -0.0333266 0.70553
vn -0.707892 -0.320906 0.629212
vn -0.707892 -0.0664766 -0.703186
vn -0.707887 -0.229233 0.668093
vn -0.666667 -0.666667 0.333333
vn -0.666667 -0.333333 -0.666667
vn -0.666667 0.333333 0.666667
vn -0.666667 0.666667 -0.333333
vn -0.665542 -0.332761 -0.668075
vn -0.663374 -0.663207 0.346542
vn -0.571012 -0.804262 0.164646
vn -0.555601 -0.481736 0.677671
vn -0.555594 -0.653041 0.514638
vn -0.555588 -0.830499 -0.0399239
vn -0.555586 -0.816149 -0.158822
vn -0.555584 -0.784916 -0.274288
vn -0.555582 -0.737509 -0.38394
vn -0.555578 -0.771728 0.309464
vn -0.555574 -0.157277 0.816456
vn -0.555573 -0.598976 -0.576685
vn -0.555573 -0.675048 -0.485437
vn -0.555572 -0.827694 0.079135
vn -0.555572 -0.830526 -0.0395675
vn -0.555571 -0.808001 0.196153
vn -0.555568 -0.271945 0.785742
vn -0.555564 -0.510851 -0.656033
vn -0.555563 -0.412729 -0.721806
vn -0.555558 -0.720044 0.415802
vn -0.555557 -0.194257 -0.808468
vn -0.555557 -0.306448 -0.772947
vn -0.555553 -0.380528 0.739296
vn -0.555541 -0.573781 0.601789
vn -0.41133 -0.411227 -0.813449
vn -0.409288 -0.818553 0.403056
vn -0.408248 -0.408248 -0.816497
vn -0.408248 -0.816497 0.408248
vn -0.408248 -0.408248 -0.816497
vn -0.408248 0.408248 0.816497
vn -0.345033 -0.897085 0.276027
vn 0 1 -0
vn 0.345033 -0.75907 0.552055
vn 0.405235 -0.405133 0.819544
vn 0.408248 -0.816497 -0.408248
vn 0.408248 -0.816497 -0.408248
vn 0.408248 0.816497 0.408248
vn 0.408248 0.816497 0.408248
vn 0.409288 -0.409276 0.81546
vn 0.555541 -0.601335 0.574256
vn 0.555553 -0.414976 0.720524
vn 0.555557 -0.26957 -0.786568
vn 0.555557 -0.155821 -0.816747
vn 0.555558 -0.738909 0.381273
vn 0.555563 -0.378029 -0.74057
vn 0.555564 -0.479141 -0.679539
vn 0.555568 -0.309017 0.771915
vn 0.555571 -0.81643 0.157428
vn 0.555572 -0.830526 0.0395675
vn 0.555573 -0.651113 -0.517098
vn 0.555573 -0.570774 -0.604612
vn 0.555574 -0.196076 0.808017
vn 0.555578 -0.785655 0.272173
vn 0.555582 -0.71825 -0.418862
vn 0.555584 -0.770843 -0.311654
vn 0.555586 -0.807571 -0.197873
vn 0.555588 -0.830499 0.0399193
vn 0.555588 -0.827615 -0.0798478
vn 0.555594 -0.677133 0.482499
vn 0.555601 -0.514011 0.65353
vn 0.560633 -0.82177 0.101904
vn 0.571012 -0.752005 0.329293
vn 0.665542 -0.665522 -0.337838
vn 0.666667 -0.666667 -0.333333
vn 0.666667 -0.333333 0.666667
vn 0.666667 -0.333333 0.666667
vn 0.666667 0.333333 -0.666667
vn 0.670009 -0.669841 -0.320001
vn 0.707887 -0.260404 0.656571
vn 0.707892 -0.0332383 -0.705539
vn 0.707892 -0.350236 0.613371
vn 0.707896 -0.0666532 0.703165
vn 0.707897 -0.508808 0.489895
vn 0.707897 -0.133498 -0.693585
vn 0.707897 -0.165371 0.686683
vn 0.707898 -0.555022 -0.436843
vn 0.707899 -0.409468 -0.575512
vn 0.707903 -0.655654 -0.262662
vn 0.707906 -0.067095 0.703112
vn 0.707909 -0.0336053 -0.705504
vn 0.707911 -0.230482 -0.667638
vn 0.707912 -0.686325 -0.166789
vn 0.707913 -0.323358 -0.627932
vn 0.707916 -0.6265 0.326116
vn 0.707916 -0.573405 0.412385
vn 0.707917 -0.487072 -0.511483
vn 0.707918 -0.611416 -0.353585
vn 0.707919 -0.66675 0.233013
vn 0.70792 -0.434071 0.557164
vn 0.707922 -0.693285 0.134913
vn 0.740798 -0.642024 0.197547
vn 0.800653 -0.596408 -0.057022
vn 0.801881 -0.537287 0.261362
vn 0.872872 -0.218218 -0.436436
vn 0.894427 0 -0.447214
vn 0.985528 0.0758098 -0.15162
vn 0.985528 0.15162 0.0758098
usemtl Default
s off
f 2//60 6//35 90//97
f 2//60 90//97 86//73
f 4//36 1//59 85//102
f 4//36 85//102 88//68
f 51//1 48//6 47//40
f 52//2 50//48 48//6
f 48//6 49//49 44//9
f 49//49 45//17 44//9
f 50//48 52//2 46//50
f 44//9 45//17 40//11
f 45//17 41//21 40//11
f 46//50 52//2 42//44
f 40//11 41//21 36//15
f 41//21 37//12 36//15
f 42//44 52//2 38//54
f 36//15 37//12 32//14
f 37//12 33//23 32//14
f 38//54 52//2 34//39
f 32//14 33//23 28//26
f 33//23 29//13 28//26
f 34//39 52//2 30//58
f 28//26 29//13 24//10
f 29//13 25//22 24//10
f 30//58 52//2 26//38
f 24//10 25//22 20//28
f 25//22 21//16 20//28
f 26//38 52//2 22//57
f 20//28 21//16 16//30
f 21//16 17//18 16//30
f 22//57 52//2 18//51
f 16//30 17//18 12//24
f 17//18 13//25 12//24
f 18//51 52//2 14//45
f 12//24 13//25 10//27
f 13//25 7//19 10//27
f 14//45 52//2 8//20
f 9//29 3//61 5//31
f 10//27 7//19 4//36
f 7//19 1//59 4//36
f 8//20 6//35 2//60
f 8//20 52//2 6//35
f 134//83 136//130 133//126
f 136//130 134//83 130//82
f 133//126 132//91 129//116
f 129//116 132//91 128//124
f 136//130 130//82 126//87
f 129//116 128//124 125//112
f 125//112 128//124 124//122
f 136//130 126//87 122//78
f 125//112 124//122 121//121
f 121//121 124//122 120//118
f 136//130 122//78 118//93
f 121//121 120//118 117//110
f 117//110 120//118 116//119
f 136//130 118//93 114//74
f 117//110 116//119 113//120
f 113//120 116//119 112//107
f 136//130 114//74 110//94
f 113//120 112//107 109//111
f 109//111 112//107 108//123
f 136//130 110//94 106//75
f 109//111 108//123 105//117
f 105//117 108//123 104//105
f 136//130 106//75 102//81
f 105//117 104//105 101//115
f 101//115 104//105 100//103
f 136//130 102//81 98//86
f 101//115 100//103 97//108
f 97//108 100//103 96//109
f 136//130 98//86 92//113
f 97//108 96//109 91//114
f 91//114 96//109 94//106
f 136//130 92//113 90//97
f 90//97 92//113 86//73
f 91//114 94//106 85//102
f 85//102 94//106 88//68
f 87//69 93//104 89//99
f 7//19 91//114 1//59
f 1//59 91//114 85//102
f 13//25 97//108 7//19
f 7//19 97//108 91//114
f 17//18 101//115 13//25
f 13//25 101//115 97//108
f 21//16 105//117 17//18
f 17//18 105//117 101//115
f 25//22 109//111 21//16
f 21//16 109//111 105//117
f 29//13 113//120 25//22
f 25//22 113//120 109//111
f 33//23 117//110 29//13
f 29//13 117//110 113//120
f 37//12 121//121 33//23
f 33//23 121//121 117//110
f 41//21 125//112 37//12
f 37//12 125//112 121//121
f 45//17 129//116 41//21
f 41//21 129//116 125//112
f 49//49 133//126 45//17
f 45//17 133//126 129//116
f 49//49 50//48 134//83
f 49//49 134//83 133//126
f 50//48 46//50 130//82
f 134//83 50//48 130//82
f 46//50 42//44 126//87
f 130//82 46//50 126//87
f 42//44 38//54 122//78
f 126//87 42//44 122//78
f 38//54 34//39 118//93
f 122//78 38//54 118//93
f 34//39 30//58 114//74
f 118//93 34//39 114//74
f 30//58 26//38 110//94
f 114//74 30//58 110//94
f 26//38 22//57 106//75
f 110//94 26//38 106//75
f 22//57 18//51 102//81
f 106//75 22//57 102//81
f 18//51 14//45 98//86
f 102//81 18//51 98//86
f 14//45 8//20 92//113
f 98//86 14//45 92//113
f 8//20 2//60 86//73
f 92//113 8//20 86//73
f 9//29 93//104 3//61
f 3//61 93//104 87//69
f 11//55 95//77 9//29
f 9//29 95//77 93//104
f 15//56 99//76 11//55
f 11//55 99//76 95//77
f 19//53 103//79 15//56
f 15//56 103//79 99//76
f 23//52 107//80 19//53
f 19//53 107//80 103//79
f 27//46 111//85 23//52
f 23//52 111//85 107//80
f 31//47 115//84 27//46
f 27//46 115//84 111//85
f 35//43 119//88 31//47
f 31//47 119//88 115//84
f 39//42 123//89 35//43
f 35//43 123//89 119//88
f 43//41 127//90 39//42
f 39//42 127//90 123//89
f 47//40 131//92 43//41
f 43//41 131//92 127//90
f 47//40 48//6 132//91
f 47//40 132//91 131//92
f 48//6 44//9 128//124
f 132//91 48//6 128//124
f 44//9 40//11 124//122
f 128//124 44//9 124//122
f 40//11 36//15 120//118
f 124//122 40//11 120//118
f 36//15 32//14 116//119
f 120//118 36//15 116//119
f 32//14 28//26 112//107
f 116//119 32//14 112//107
f 28//26 24//10 108//123
f 112//107 28//26 108//123
f 24//10 20//28 104//105
f 108//123 24//10 104//105
f 20//28 16//30 100//103
f 104//105 20//28 100//103
f 16//30 12//24 96//109
f 100//103 16//30 96//109
f 12//24 10//27 94//106
f 96//109 12//24 94//106
f 10//27 4//36 88//68
f 94//106 10//27 88//68
f 53//31 54//63 82//70
f 53//31 82//70 81//99
f 56//34 55//64 83//71
f 84//101 56//34 83//71
f 55//64 53//31 81//99
f 83//71 55//64 81//99
f 55//64 56//34 53//31
f 56//34 54//63 53//31
f 82//70 84//101 81//99
f 84//101 83//71 81//99
f 59//37 60//7 72//125
f 59//37 72//125 71//96
f 60//7 57//65 69//67
f 72//125 60//7 69//67
f 61//4 62//32 74//98
f 61//4 74//98 73//128
f 66//33 68//3 65//8
f 65//8 68//3 63//5
f 63//5 68//3 62//32
f 63//5 62//32 61//4
f 63//5 61//4 59//37
f 61//4 60//7 59//37
f 60//7 58//32 57//65
f 60//7 61//4 58//32
f 80//129 78//72 76//100
f 77//95 80//129 76//100
f 80//129 77//95 75//127
f 80//129 75//127 74//98
f 74//98 75//127 73//128
f 73//128 75//127 71//96
f 72//125 73//128 71//96
f 73//128 72//125 70//98
f 70//98 72//125 69//67
f 57//65 58//32 70//98
f 57//65 70//98 69//67
f 61//4 73//128 58//32
f 58//32 73//128 70//98
f 66//33 64//62 76//100
f 78//72 66//33 76//100
f 65//8 63//5 75//127
f 77//95 65//8 75//127
f 66//33 65//8 64//62
f 52//2 51//1 135//131
f 136//130 52//2 135//131
f 67//66 66//33 78//72
f 79//66 67//66 78//72
f 52//2 136//130 6//35
f 6//35 136//130 90//97
f 68//3 80//129 62//32
f 62//32 80//129 74//98
f 56//34 84//101 54//63
f 54//63 84//101 82//70
f 5//31 3//61 87//69
f 5//31 87//69 89//99
f 63//5 59//37 71//96
f 75//127 63//5 71//96
f 64//62 65//8 77//95
f 64//62 77//95 76//100
f 51//1 5//31 89//99
f 135//131 51//1 89//99
f 136//130 135//131 133//126
f 133//126 135//131 131//92
f 131//92 135//131 127//90
f 127//90 135//131 123//89
f 123//89 135//131 119//88
f 119//88 135//131 115//84
f 115//84 135//131 111//85
f 111//85 135//131 107//80
f 107//80 135//131 103//79
f 103//79 135//131 99//76
f 99//76 135//131 95//77
f 95//77 135//131 93//104
f 93//104 135//131 89//99
f 51//1 47//40 43//41
f 51//1 43//41 39//42
f 51//1 35//43 31//47
f 51//1 31//47 27//46
f 51//1 23//52 19//53
f 51//1 11//55 9//29
f 51//1 52//2 48//6
f 51//1 39//42 35//43
f 51//1 27//46 23//52
f 51//1 19//53 15//56
f 51//1 15//56 11//55
f 51//1 9//29 5//31
